# xmcd
#
# Track frame offsets:
#	150
#	11635
#	23110
#	35888
#	44923
#	57820
#	70045
#	80795
#	91350
#	101425
#
# Disc length: 1508 seconds
#
# Revision: 4
# Processed by: cddbd v1.5.2PL0 Copyright (c) Steve Scherf et al.
# Submitted via: EZCDAudioConverter 6.0.5.1
#
DISCID=8405e20a
DTITLE=Johnny Horton - The Johnny Horton Legend
DYEAR=1994
DGENRE=Country
TTITLE0=The Battle Of New Orleans
TTITLE1=Mr. Moonlight
TTITLE2=All For The Love Of A Girl
TTITLE3=I'm A One Woman Man
TTITLE4=North To Alaska
TTITLE5=Rock Island Line
TTITLE6=I Got A Hole In My Pirogue
TTITLE7=I'm Ready If Your Willing
TTITLE8=Honky Tonk Man
TTITLE9=When It's Springtime In Alaska
EXTD=
EXTT0=
EXTT1=
EXTT2=
EXTT3=
EXTT4=
EXTT5=
EXTT6=
EXTT7=
EXTT8=
EXTT9=
PLAYORDER=
